<svg xmlns="http://www.w3.org/2000/svg" width="512" height="512" viewBox="0 0 512 512"><defs><linearGradient id="g" x1="0" y1="0" x2="1" y2="1"><stop offset="0" stop-color="#F1DCA7"/><stop offset=".45" stop-color="#C9A45C"/><stop offset="1" stop-color="#8E6B2E"/></linearGradient><radialGradient id="b" cx=".5" cy=".32" r=".8"><stop offset="0" stop-color="#2A241A"/><stop offset=".6" stop-color="#14110C"/><stop offset="1" stop-color="#080706"/></radialGradient></defs>
<rect width="512" height="512" fill="url(#b)"/>
<rect x="70" y="70" width="372" height="372" rx="64" fill="none" stroke="url(#g)" stroke-width="5"/>
<rect x="84" y="84" width="344" height="344" rx="54" fill="none" stroke="url(#g)" stroke-opacity=".45" stroke-width="2"/>
<g transform="translate(122.88 122.88) scale(11.093333333333334)" fill="none" stroke="url(#g)" stroke-width="1.15" stroke-linecap="round" stroke-linejoin="round"><path d="M15 21v-8a1 1 0 0 0-1-1h-4a1 1 0 0 0-1 1v8"/><path d="M3 10a2 2 0 0 1 .709-1.528l7-6a2 2 0 0 1 2.582 0l7 6A2 2 0 0 1 21 10v9a2 2 0 0 1-2 2H5a2 2 0 0 1-2-2z"/></g></svg>