<svg xmlns="http://www.w3.org/2000/svg" width="512" height="512" viewBox="0 0 512 512"><defs><linearGradient id="g" x1="0" y1="0" x2="1" y2="1"><stop offset="0" stop-color="#F7E9C8"/><stop offset=".5" stop-color="#E2C68E"/><stop offset="1" stop-color="#C29A55"/></linearGradient><radialGradient id="b" cx=".5" cy=".18" r=".95"><stop offset="0" stop-color="#8A1A4A"/><stop offset=".55" stop-color="#5A1030"/><stop offset="1" stop-color="#2E0818"/></radialGradient></defs>
<rect width="512" height="512" fill="url(#b)"/>
<rect x="70" y="70" width="372" height="372" rx="64" fill="none" stroke="url(#g)" stroke-width="5"/>
<rect x="84" y="84" width="344" height="344" rx="54" fill="none" stroke="url(#g)" stroke-opacity=".45" stroke-width="2"/>
<g transform="translate(122.88 122.88) scale(11.093333333333334)" fill="none" stroke="url(#g)" stroke-width="1.15" stroke-linecap="round" stroke-linejoin="round"><path d="M11 20A7 7 0 0 1 9.8 6.1C15.5 5 17 4.48 19 2c1 2 2 4.18 2 8 0 5.5-4.78 10-10 10Z"/><path d="M2 21c0-3 1.85-5.36 5.08-6C9.5 14.52 12 13 13 12"/></g></svg>